<?xml version="1.0" encoding="utf-8"?>
<!-- Generator: Adobe Illustrator 25.4.0, SVG Export Plug-In . SVG Version: 6.00 Build 0)  -->
<svg version="1.1" xmlns="http://www.w3.org/2000/svg" xmlns:xlink="http://www.w3.org/1999/xlink" x="0px" y="0px"
	 viewBox="0 0 500 500" style="enable-background:new 0 0 500 500;" xml:space="preserve">
<style type="text/css">
	.st0{fill:#F5F5F5;}
	.st1{fill:#E0E0E0;}
	.st2{fill:#001C93;}
	.st3{opacity:0.1;}
	.st4{opacity:0.15;}
	.st5{fill:#001263;}
	.st6{fill:#566087;}
	.st7{opacity:0.25;}
	.st8{fill:#0124B8;}
	.st9{opacity:0.3;fill:#FFFFFF;}
	.st10{opacity:0.15;fill:#FFFFFF;}
	.st11{opacity:0.2;}
	.st12{opacity:0.4;}
	.st13{opacity:0.6;}
	.st14{fill:#97B9F1;}
	.st15{fill:#F0C17A;}
	.st16{fill:#AF8152;}
	.st17{fill:#FFDBA7;}
	.st18{fill:#C83765;}
	.st19{fill:#FAFAFA;}
	.st20{fill:#F0F0F0;}
	.st21{fill:#FFFFFF;}
	.st22{fill:#262638;}
	.st23{fill:#F2B18F;}
	.st24{fill:#4E4564;}
	.st25{fill:#C8261B;}
</style>
<g id="Floor">
	<path id="Floor_00000181809733265732721680000017964910404013844663_" class="st0" d="M77.35,194.21
		c-95.35,62.12-95.34,162.85,0.01,224.97c95.35,62.12,249.94,62.12,345.29,0c95.35-62.12,95.34-162.85-0.01-224.97
		C327.29,132.09,172.7,132.09,77.35,194.21z"/>
</g>
<g id="Shadows">
	<path id="Shadow_97_" class="st1" d="M218.48,417.86L31.89,310.13c-10.11-5.84-10.11-15.3,0-21.13l108.68-62.75
		c10.11-5.84,26.5-5.84,36.6,0l186.59,107.73c10.11,5.84,10.11,15.3,0,21.13l-108.68,62.75
		C244.98,423.69,228.59,423.69,218.48,417.86z"/>
	<path id="Shadow_103_" class="st1" d="M440.18,439.33c10.84-7.34,20.05-21.19,11.25-33.65c-6.38-9.03-15.31-13.19-25.27-17.34
		c-13.07-5.44-26.29-10.71-39.4-15.85c-11.89-4.66-22.14-15.32-32.48-22.64c-9.9-7-20.81-13.15-32.81-14.9
		c-16.06-2.35-32.39,3.47-46.1,12.15c-7.24,4.59-14.19,10.26-17.86,18.01c-3.8,8.02-2.46,15.23,1.99,22.55
		c4.12,6.77,12.45,10.26,19.47,13.69c10.62,5.19,22.21,7.17,32.88,12.14c10.99,5.13,21.81,10.62,32.24,16.82
		c13.28,7.9,26.07,17.38,41.54,20.43c17.72,3.49,34.1-0.96,49.98-8.73C437.13,441.24,438.67,440.35,440.18,439.33z"/>
</g>
<g id="Carrier_00000072262242287066017660000000531042123118612356_">
	<g id="Carrier">
		<g>
			<path class="st2" d="M31.22,232.42v10.05c0,0.17,0.02,0.33,0.05,0.46c0.02,0.14,0.06,0.25,0.13,0.36c0,0.02,0,0.03,0.02,0.05
				c0.05,0.09,0.11,0.19,0.17,0.25c0.06,0.08,0.13,0.14,0.2,0.17c0.02,0.03,0.03,0.03,0.05,0.05l0.06,0.03
				c0.36,0.17,0.85,0.13,1.37-0.19l2.3-1.32c1.13-0.65,2.22-0.33,2.43,0.72l0.93,4.85l171.97,99.28l0.17,0.11
				c0.36,0.17,0.85,0.13,1.39-0.17l2.32-1.32c1.12-0.66,2.21-0.33,2.41,0.72l9.99,51.86c0.49,2.57,1.76,4.47,3.54,5.69
				c0.2,0.13,0.43,0.25,0.65,0.36h0.02c0.16,0.08,0.32,0.16,0.49,0.24c0.17,0.08,0.33,0.14,0.5,0.21c0.16,0.06,0.3,0.11,0.46,0.17
				c0.21,0.06,0.41,0.13,0.61,0.16c0.33,0.08,0.69,0.14,1.04,0.19c2.62,0.32,5.67-0.36,8.78-2.16l94.31-54.45
				c7.53-4.35,14.98-16.34,16.62-26.78l9.37-59.54c0.25-1.56,1.37-3.37,2.49-4.02l2.32-1.34c1.12-0.65,2.05-2.24,2.05-3.54v-10.05
				c0-1.31-0.93-1.83-2.05-1.18l-21.51,12.41l-162.77-93.98l0.28-1.76c0.24-1.56,1.37-3.37,2.49-4.02l2.3-1.34
				c1.13-0.65,2.05-2.24,2.05-3.54v-10.05c0-1.29-0.91-1.83-2.05-1.18l-21.51,12.41L54.78,216.46l-21.51,12.41
				c-0.68,0.39-1.28,1.12-1.65,1.94c-0.08,0.16-0.14,0.31-0.2,0.5c-0.03,0.16-0.08,0.31-0.11,0.49
				C31.27,232,31.24,232.2,31.22,232.42z"/>
			<path class="st2" d="M31.22,232.43v10.05c0,0.17,0.01,0.33,0.04,0.45c0.01,0.14,0.07,0.25,0.12,0.36c0,0.01,0,0.04,0.03,0.06
				c0.04,0.1,0.11,0.18,0.17,0.25c0.07,0.08,0.12,0.14,0.21,0.18c0.01,0.03,0.03,0.03,0.04,0.04l0.07,0.03
				c0.36,0.18,0.85,0.14,1.36-0.18l2.3-1.32c1.14-0.65,2.23-0.33,2.43,0.72l0.94,4.85l171.97,99.28l0.18,0.11
				c0.36,0.18,0.85,0.12,1.38-0.18l2.32-1.32c1.13-0.66,2.21-0.33,2.41,0.73l4.59,23.8l2.8,14.55l101.16-58.1
				c1.12-0.66,2.23-2.45,2.48-4.01l11.36-72.23l-3.87-2.23l-151.6-87.54l0.29-1.76c0.23-1.56,1.36-3.36,2.48-4.01l2.3-1.34
				c1.14-0.65,2.05-2.25,2.05-3.56v-10.05c0-1.3-0.91-1.83-2.05-1.19l-21.5,12.42L54.78,216.47l-21.51,12.4
				c-0.68,0.4-1.27,1.12-1.65,1.94c-0.07,0.15-0.14,0.32-0.19,0.51c-0.04,0.15-0.08,0.3-0.11,0.48
				C31.27,232,31.24,232.21,31.22,232.43z"/>
			<path class="st3" d="M31.22,232.43v10.05c0,0.17,0.01,0.33,0.04,0.45c0.01,0.14,0.07,0.25,0.12,0.36c0,0.01,0,0.04,0.03,0.06
				c0.04,0.1,0.11,0.18,0.17,0.25c0.07,0.08,0.12,0.14,0.21,0.18c0.01,0.03,0.03,0.03,0.04,0.04l0.07,0.03
				c0.36,0.18,0.85,0.14,1.36-0.18l2.3-1.32c1.14-0.65,2.23-0.33,2.43,0.72l0.94,4.85l171.97,99.28l0.18,0.11
				c0.36,0.18,0.85,0.12,1.38-0.18l2.32-1.32c1.13-0.66,2.21-0.33,2.41,0.73l4.59,23.8l2.8,14.55l101.16-58.1
				c1.12-0.66,2.23-2.45,2.48-4.01l11.36-72.23l-3.87-2.23l-151.6-87.54l0.29-1.76c0.23-1.56,1.36-3.36,2.48-4.01l2.3-1.34
				c1.14-0.65,2.05-2.25,2.05-3.56v-10.05c0-1.3-0.91-1.83-2.05-1.19l-21.5,12.42L54.78,216.47l-21.51,12.4
				c-0.68,0.4-1.27,1.12-1.65,1.94c-0.07,0.15-0.14,0.32-0.19,0.51c-0.04,0.15-0.08,0.3-0.11,0.48
				C31.27,232,31.24,232.21,31.22,232.43z"/>
			<path class="st4" d="M31.22,232.42v10.05c0,0.17,0.02,0.33,0.05,0.46c0.02,0.14,0.06,0.25,0.13,0.36c0,0.02,0,0.03,0.02,0.05
				c0.05,0.09,0.11,0.19,0.17,0.25c0.06,0.08,0.13,0.14,0.2,0.17c0.02,0.03,0.03,0.03,0.05,0.05l0.06,0.03
				c0.36,0.17,0.85,0.13,1.37-0.19l2.3-1.32c1.13-0.65,2.22-0.33,2.43,0.72l0.93,4.85l51.09,29.49l61.95-35.76
				c3.81-2.21,8.81-3.29,13.79-3.28l14.87-94.56l-12.97,7.48L54.78,216.46l-21.51,12.41c-0.68,0.39-1.28,1.12-1.65,1.94
				c-0.08,0.16-0.14,0.31-0.2,0.5c-0.03,0.16-0.08,0.31-0.11,0.49C31.27,232,31.24,232.2,31.22,232.42z"/>
			<path class="st5" d="M324.77,325.64l-145.5-84.01c-7.54-4.35-19.75-4.35-27.29,0l-62.31,35.97c-7.54,4.35-7.54,11.4,0,15.75
				l145.5,84.01c7.54,4.35,19.75,4.35,27.29,0l62.31-35.97C332.3,337.05,332.3,329.99,324.77,325.64z"/>
		</g>
		<g>
			<polygon class="st6" points="38.93,225.61 166.59,151.91 345.26,254.88 345.26,169.79 172.02,67.93 57.69,133.5 			"/>
			<polygon class="st7" points="38.93,225.61 166.6,151.9 339.43,251.52 320.95,155.5 172.02,67.93 57.68,133.49 			"/>
			<polygon class="st4" points="320.95,155.5 339.43,251.52 345.26,254.88 345.26,169.79 			"/>
			<polygon class="st4" points="166.59,151.91 172.02,67.93 57.69,133.5 38.93,225.61 			"/>
		</g>
		<g>
			<path class="st2" d="M224.56,384.88l2.6,13.51c0.5,2.58,1.76,4.48,3.54,5.69c0.21,0.12,0.43,0.25,0.65,0.36h0.01
				c0.17,0.08,0.32,0.17,0.5,0.25c0.17,0.07,0.33,0.14,0.5,0.19c0.17,0.07,0.3,0.11,0.47,0.18c0.19,0.07,0.4,0.12,0.61,0.15
				c0.33,0.08,0.69,0.15,1.05,0.19c2.6,0.32,5.66-0.36,8.76-2.15l94.31-54.45c7.54-4.36,14.99-16.34,16.62-26.79l9.39-59.54
				c0.25-1.56,1.36-3.38,2.48-4.01l2.32-1.35c1.13-0.63,2.05-2.23,2.05-3.54v-10.05c0-1.31-0.92-1.83-2.05-1.19l-21.5,12.42
				l-7.3-4.22l-11.36,72.23c-0.25,1.56-1.36,3.35-2.48,4.01L224.56,384.88z"/>
			<path class="st2" d="M38.93,247.91l9.04,47.01c0.52,2.68,1.89,4.63,3.78,5.81v0.02l178.96,103.33c-1.78-1.21-3.06-3.12-3.54-5.69
				l-9.99-51.86c-0.2-1.06-1.29-1.39-2.41-0.72l-2.32,1.32c-0.54,0.3-1.02,0.35-1.39,0.17l-0.17-0.11L38.93,247.91z"/>
			<path class="st3" d="M37.99,243.06c-0.2-1.05-1.29-1.38-2.41-0.73l-2.31,1.33c-1.13,0.65-2.05,0.12-2.05-1.18v-5.03L223.22,348.3
				l0,14.78L40.82,257.77L37.99,243.06z"/>
			<path class="st8" d="M210.41,335.89v10.05c0,0.06,0.02,0.14,0.02,0.2c0,0.14,0.03,0.28,0.06,0.39c0.05,0.13,0.09,0.24,0.16,0.35
				c0.03,0.05,0.06,0.11,0.11,0.16c0.05,0.06,0.09,0.11,0.14,0.14l0.17,0.11c0.36,0.17,0.85,0.13,1.39-0.17l2.32-1.32
				c1.12-0.66,2.21-0.33,2.41,0.72l9.99,51.86c0.49,2.57,1.76,4.47,3.54,5.69c0.2,0.13,0.43,0.25,0.65,0.36
				c0.16,0.09,0.33,0.17,0.5,0.24c0.17,0.08,0.33,0.14,0.5,0.21c0.16,0.06,0.3,0.11,0.46,0.17c0.21,0.06,0.41,0.13,0.61,0.16
				c0.33,0.08,0.69,0.14,1.04,0.19c2.62,0.32,5.67-0.36,8.78-2.16l94.31-54.45c7.53-4.35,14.98-16.34,16.62-26.78l9.37-59.54
				c0.25-1.56,1.37-3.37,2.49-4.02l2.32-1.34c1.12-0.65,2.05-2.24,2.05-3.54v-10.05c0-1.31-0.93-1.83-2.05-1.18l-21.51,12.41
				c-1.13,0.65-2.25,2.46-2.51,4.02l-10.62,67.49c-0.25,1.56-1.37,3.36-2.49,4.02l-81.66,47.14c-1.13,0.65-2.22,0.33-2.43-0.72
				l-10.78-56.04c-0.2-1.04-1.29-1.37-2.43-0.72l-21.51,12.41c-0.55,0.33-1.07,0.88-1.45,1.53c-0.02,0.05-0.05,0.09-0.08,0.14
				c-0.05,0.11-0.11,0.24-0.17,0.36c-0.05,0.09-0.09,0.22-0.13,0.35C210.49,335.12,210.41,335.51,210.41,335.89z"/>
			<path class="st8" d="M31.22,232.42v10.05c0,0.17,0.02,0.33,0.05,0.46c0.02,0.14,0.06,0.25,0.13,0.36c0,0.02,0,0.03,0.02,0.05
				c0.05,0.09,0.11,0.19,0.17,0.25c0.06,0.08,0.13,0.14,0.2,0.17c0.02,0.03,0.03,0.03,0.05,0.05l0.06,0.03l179,103.34l0.17,0.11
				c-0.13-0.08-0.24-0.16-0.32-0.25c-0.05-0.05-0.08-0.11-0.11-0.16c-0.06-0.11-0.11-0.22-0.16-0.35c-0.03-0.11-0.06-0.25-0.06-0.39
				c0-0.06-0.02-0.14-0.02-0.2v-10.05c0.05-0.44,0.13-0.84,0.22-1.17c0.03-0.13,0.08-0.25,0.13-0.35c0.05-0.14,0.11-0.25,0.17-0.36
				c0.03-0.05,0.06-0.09,0.09-0.14h-0.02L31.84,230.42c-0.08,0.13-0.16,0.25-0.22,0.39c-0.08,0.16-0.14,0.31-0.2,0.5
				c-0.03,0.16-0.08,0.31-0.11,0.49C31.27,232,31.24,232.2,31.22,232.42z"/>
		</g>
		<g>
			<g>
				<path class="st6" d="M31.22,217.66v10.05c0,1.3,0.94,2.9,2.05,3.53l175.1,101.1c1.12,0.67,2.95,0.67,4.11,0l21.48-12.41
					c1.12-0.67,2.23-2.23,2.41-3.53l10.81-68.46c0.18-1.29,1.3-2.9,2.41-3.53l81.63-47.16c1.16-0.67,2.28-0.13,2.5,1.16l10.63,55.2
					c0.27,1.3,1.38,1.79,2.5,1.12l21.52-12.41c1.12-0.63,2.01-2.23,2.01-3.53v-10.05c0-1.3-0.89-1.83-2.01-1.21l-2.32,1.34
					c-1.12,0.67-2.23,0.13-2.5-1.12l-9.38-48.72c-1.65-8.53-9.07-19.02-16.61-23.36L185.64,67.97c-7.5-4.33-19.74-4.33-27.28,0
					l-94.27,54.44c-7.55,4.38-14.74,14.87-16.12,23.44l-9.96,63.41c-0.22,1.29-1.3,2.86-2.41,3.53l-2.32,1.29
					C32.16,214.76,31.22,216.36,31.22,217.66z M195.06,283.44l5.63-33.49c0.36-2.14,2.05-3.08,3.84-2.05
					c1.74,1.03,2.9,3.57,2.55,5.76l-5.63,33.49c-0.36,2.14-2.05,3.04-3.84,2.05C195.87,288.17,194.71,285.58,195.06,283.44z
					 M175.86,272.36l5.63-33.49c0.36-2.14,2.05-3.08,3.84-2.05c1.74,1.03,2.9,3.57,2.55,5.72l-5.63,33.54
					c-0.36,2.14-2.05,3.04-3.84,2.01C176.67,277.05,175.5,274.51,175.86,272.36z M156.66,261.29l5.63-33.54
					c0.36-2.14,2.05-3.04,3.84-2.01c1.79,1.03,2.9,3.57,2.55,5.72l-5.58,33.54c-0.4,2.14-2.1,3.04-3.88,2.01
					C157.46,265.98,156.3,263.43,156.66,261.29z M137.46,250.21l5.63-33.54c0.36-2.14,2.1-3.04,3.84-2.01
					c1.79,0.98,2.9,3.57,2.54,5.72l-5.58,33.49c-0.36,2.14-2.1,3.08-3.88,2.05C138.26,254.9,137.1,252.36,137.46,250.21z
					 M118.25,239.09l5.63-33.49c0.36-2.14,2.1-3.08,3.84-2.05c1.79,1.03,2.9,3.62,2.55,5.76l-5.58,33.49
					c-0.36,2.14-2.1,3.08-3.89,2.05C119.06,243.83,117.9,241.24,118.25,239.09z M99.05,228.02l5.63-33.49
					c0.36-2.14,2.1-3.08,3.84-2.05c1.79,1.03,2.9,3.57,2.55,5.72l-5.58,33.54c-0.36,2.14-2.1,3.04-3.84,2.01
					C99.86,232.75,98.69,230.16,99.05,228.02z M79.89,216.94l5.58-33.49c0.36-2.19,2.1-3.08,3.84-2.05c1.79,1.03,2.9,3.57,2.55,5.72
					l-5.58,33.54c-0.36,2.14-2.1,3.04-3.84,2.01C80.65,221.63,79.49,219.09,79.89,216.94z M60.69,205.87l5.58-33.54
					c0.36-2.14,2.1-3.04,3.84-2.01c1.79,1.03,2.95,3.57,2.55,5.72l-5.58,33.49c-0.36,2.14-2.1,3.08-3.84,2.05
					C61.45,210.56,60.33,208.01,60.69,205.87z"/>
				<path class="st9" d="M31.22,217.66v10.05c0,1.3,0.94,2.9,2.05,3.53l175.1,101.1c1.12,0.67,2.95,0.67,4.11,0l21.48-12.41
					c1.12-0.67,2.23-2.23,2.41-3.53l10.81-68.46c0.18-1.29,1.3-2.9,2.41-3.53l81.63-47.16c1.16-0.67,2.28-0.13,2.5,1.16l10.63,55.2
					c0.27,1.3,1.38,1.79,2.5,1.12l21.52-12.41c1.12-0.63,2.01-2.23,2.01-3.53v-10.05c0-1.3-0.89-1.83-2.01-1.21l-2.32,1.34
					c-1.12,0.67-2.23,0.13-2.5-1.12l-9.38-48.72c-1.65-8.53-9.07-19.02-16.61-23.36L185.64,67.97c-7.5-4.33-19.74-4.33-27.28,0
					l-94.27,54.44c-7.55,4.38-14.74,14.87-16.12,23.44l-9.96,63.41c-0.22,1.29-1.3,2.86-2.41,3.53l-2.32,1.29
					C32.16,214.76,31.22,216.36,31.22,217.66z M195.06,283.44l5.63-33.49c0.36-2.14,2.05-3.08,3.84-2.05
					c1.74,1.03,2.9,3.57,2.55,5.76l-5.63,33.49c-0.36,2.14-2.05,3.04-3.84,2.05C195.87,288.17,194.71,285.58,195.06,283.44z
					 M175.86,272.36l5.63-33.49c0.36-2.14,2.05-3.08,3.84-2.05c1.74,1.03,2.9,3.57,2.55,5.72l-5.63,33.54
					c-0.36,2.14-2.05,3.04-3.84,2.01C176.67,277.05,175.5,274.51,175.86,272.36z M156.66,261.29l5.63-33.54
					c0.36-2.14,2.05-3.04,3.84-2.01c1.79,1.03,2.9,3.57,2.55,5.72l-5.58,33.54c-0.4,2.14-2.1,3.04-3.88,2.01
					C157.46,265.98,156.3,263.43,156.66,261.29z M137.46,250.21l5.63-33.54c0.36-2.14,2.1-3.04,3.84-2.01
					c1.79,0.98,2.9,3.57,2.54,5.72l-5.58,33.49c-0.36,2.14-2.1,3.08-3.88,2.05C138.26,254.9,137.1,252.36,137.46,250.21z
					 M118.25,239.09l5.63-33.49c0.36-2.14,2.1-3.08,3.84-2.05c1.79,1.03,2.9,3.62,2.55,5.76l-5.58,33.49
					c-0.36,2.14-2.1,3.08-3.89,2.05C119.06,243.83,117.9,241.24,118.25,239.09z M99.05,228.02l5.63-33.49
					c0.36-2.14,2.1-3.08,3.84-2.05c1.79,1.03,2.9,3.57,2.55,5.72l-5.58,33.54c-0.36,2.14-2.1,3.04-3.84,2.01
					C99.86,232.75,98.69,230.16,99.05,228.02z M79.89,216.94l5.58-33.49c0.36-2.19,2.1-3.08,3.84-2.05c1.79,1.03,2.9,3.57,2.55,5.72
					l-5.58,33.54c-0.36,2.14-2.1,3.04-3.84,2.01C80.65,221.63,79.49,219.09,79.89,216.94z M60.69,205.87l5.58-33.54
					c0.36-2.14,2.1-3.04,3.84-2.01c1.79,1.03,2.95,3.57,2.55,5.72l-5.58,33.49c-0.36,2.14-2.1,3.08-3.84,2.05
					C61.45,210.56,60.33,208.01,60.69,205.87z"/>
				<path class="st6" d="M37.1,211.29l192.51,111.15l4.35-2.51c1.13-0.65,2.21-2.23,2.41-3.52l8.17-51.86L47.22,150.62l0,0
					l-9.23,58.63C37.89,209.91,37.55,210.64,37.1,211.29z M195.07,283.45l5.61-33.51c0.36-2.15,2.08-3.06,3.85-2.04
					c1.77,1.02,2.91,3.59,2.55,5.73l-5.61,33.51c-0.36,2.15-2.08,3.06-3.85,2.04C195.85,288.16,194.71,285.59,195.07,283.45z
					 M175.87,272.36l5.61-33.51c0.36-2.15,2.08-3.06,3.85-2.04c1.77,1.02,2.91,3.59,2.55,5.73l-5.61,33.51
					c-0.36,2.15-2.08,3.06-3.85,2.04C176.65,277.07,175.51,274.51,175.87,272.36z M156.67,261.28l5.61-33.51
					c0.36-2.15,2.08-3.06,3.85-2.04c1.77,1.02,2.91,3.59,2.55,5.73l-5.61,33.51c-0.36,2.15-2.08,3.06-3.85,2.04
					C157.45,265.99,156.31,263.42,156.67,261.28z M137.47,250.19l5.61-33.51c0.36-2.15,2.08-3.06,3.85-2.04
					c1.77,1.02,2.91,3.59,2.55,5.73l-5.61,33.51c-0.36,2.15-2.08,3.06-3.85,2.04C138.25,254.91,137.11,252.34,137.47,250.19z
					 M118.27,239.11l5.61-33.51c0.36-2.15,2.08-3.06,3.85-2.04c1.77,1.02,2.91,3.59,2.55,5.73l-5.61,33.51
					c-0.36,2.15-2.08,3.06-3.85,2.04C119.05,243.82,117.91,241.25,118.27,239.11z M99.07,228.02l5.61-33.51
					c0.36-2.15,2.08-3.06,3.85-2.04c1.77,1.02,2.91,3.59,2.55,5.73l-5.61,33.51c-0.36,2.15-2.08,3.06-3.85,2.04
					C99.85,232.74,98.71,230.17,99.07,228.02z M79.87,216.94l5.61-33.51c0.36-2.15,2.08-3.06,3.85-2.04
					c1.77,1.02,2.91,3.59,2.55,5.73l-5.61,33.51c-0.36,2.15-2.08,3.06-3.85,2.04C80.65,221.65,79.51,219.09,79.87,216.94z
					 M60.67,205.86l5.61-33.51c0.36-2.15,2.08-3.06,3.85-2.04c1.77,1.02,2.91,3.59,2.55,5.73l-5.61,33.51
					c-0.36,2.15-2.08,3.06-3.85,2.04C61.46,210.57,60.31,208,60.67,205.86z"/>
				<path class="st10" d="M37.1,211.29l192.51,111.15l4.35-2.51c1.13-0.65,2.21-2.23,2.41-3.52l8.17-51.86L47.22,150.62l0,0
					l-9.23,58.63C37.89,209.91,37.55,210.64,37.1,211.29z M195.07,283.45l5.61-33.51c0.36-2.15,2.08-3.06,3.85-2.04
					c1.77,1.02,2.91,3.59,2.55,5.73l-5.61,33.51c-0.36,2.15-2.08,3.06-3.85,2.04C195.85,288.16,194.71,285.59,195.07,283.45z
					 M175.87,272.36l5.61-33.51c0.36-2.15,2.08-3.06,3.85-2.04c1.77,1.02,2.91,3.59,2.55,5.73l-5.61,33.51
					c-0.36,2.15-2.08,3.06-3.85,2.04C176.65,277.07,175.51,274.51,175.87,272.36z M156.67,261.28l5.61-33.51
					c0.36-2.15,2.08-3.06,3.85-2.04c1.77,1.02,2.91,3.59,2.55,5.73l-5.61,33.51c-0.36,2.15-2.08,3.06-3.85,2.04
					C157.45,265.99,156.31,263.42,156.67,261.28z M137.47,250.19l5.61-33.51c0.36-2.15,2.08-3.06,3.85-2.04
					c1.77,1.02,2.91,3.59,2.55,5.73l-5.61,33.51c-0.36,2.15-2.08,3.06-3.85,2.04C138.25,254.91,137.11,252.34,137.47,250.19z
					 M118.27,239.11l5.61-33.51c0.36-2.15,2.08-3.06,3.85-2.04c1.77,1.02,2.91,3.59,2.55,5.73l-5.61,33.51
					c-0.36,2.15-2.08,3.06-3.85,2.04C119.05,243.82,117.91,241.25,118.27,239.11z M99.07,228.02l5.61-33.51
					c0.36-2.15,2.08-3.06,3.85-2.04c1.77,1.02,2.91,3.59,2.55,5.73l-5.61,33.51c-0.36,2.15-2.08,3.06-3.85,2.04
					C99.85,232.74,98.71,230.17,99.07,228.02z M79.87,216.94l5.61-33.51c0.36-2.15,2.08-3.06,3.85-2.04
					c1.77,1.02,2.91,3.59,2.55,5.73l-5.61,33.51c-0.36,2.15-2.08,3.06-3.85,2.04C80.65,221.65,79.51,219.09,79.87,216.94z
					 M60.67,205.86l5.61-33.51c0.36-2.15,2.08-3.06,3.85-2.04c1.77,1.02,2.91,3.59,2.55,5.73l-5.61,33.51
					c-0.36,2.15-2.08,3.06-3.85,2.04C61.46,210.57,60.31,208,60.67,205.86z M195.06,283.44l5.63-33.49
					c0.36-2.14,2.05-3.08,3.84-2.05c1.74,1.03,2.9,3.57,2.55,5.76l-5.63,33.49c-0.36,2.14-2.05,3.04-3.84,2.05
					C195.87,288.17,194.71,285.58,195.06,283.44z M175.86,272.36l5.63-33.49c0.36-2.14,2.05-3.08,3.84-2.05
					c1.74,1.03,2.9,3.57,2.55,5.72l-5.63,33.54c-0.36,2.14-2.05,3.04-3.84,2.01C176.67,277.05,175.5,274.51,175.86,272.36z
					 M156.66,261.29l5.63-33.54c0.36-2.14,2.05-3.04,3.84-2.01c1.79,1.03,2.9,3.57,2.55,5.72l-5.58,33.54
					c-0.4,2.14-2.1,3.04-3.88,2.01C157.46,265.98,156.3,263.43,156.66,261.29z M137.46,250.21l5.63-33.54
					c0.36-2.14,2.1-3.04,3.84-2.01c1.79,0.98,2.9,3.57,2.54,5.72l-5.58,33.49c-0.36,2.14-2.1,3.08-3.88,2.05
					C138.26,254.9,137.1,252.36,137.46,250.21z M118.25,239.09l5.63-33.49c0.36-2.14,2.1-3.08,3.84-2.05
					c1.79,1.03,2.9,3.62,2.55,5.76l-5.58,33.49c-0.36,2.14-2.1,3.08-3.89,2.05C119.06,243.83,117.9,241.24,118.25,239.09z
					 M99.05,228.02l5.63-33.49c0.36-2.14,2.1-3.08,3.84-2.05c1.79,1.03,2.9,3.57,2.55,5.72l-5.58,33.54
					c-0.36,2.14-2.1,3.04-3.84,2.01C99.86,232.75,98.69,230.16,99.05,228.02z M79.89,216.94l5.58-33.49
					c0.36-2.19,2.1-3.08,3.84-2.05c1.79,1.03,2.9,3.57,2.55,5.72l-5.58,33.54c-0.36,2.14-2.1,3.04-3.84,2.01
					C80.65,221.63,79.49,219.09,79.89,216.94z M60.69,205.87l5.58-33.54c0.36-2.14,2.1-3.04,3.84-2.01
					c1.79,1.03,2.95,3.57,2.55,5.72l-5.58,33.49c-0.36,2.14-2.1,3.08-3.84,2.05C61.45,210.56,60.33,208.01,60.69,205.87z
					 M195.06,283.44l5.63-33.49c0.36-2.14,2.05-3.08,3.84-2.05c1.74,1.03,2.9,3.57,2.55,5.76l-5.63,33.49
					c-0.36,2.14-2.05,3.04-3.84,2.05C195.87,288.17,194.71,285.58,195.06,283.44z M175.86,272.36l5.63-33.49
					c0.36-2.14,2.05-3.08,3.84-2.05c1.74,1.03,2.9,3.57,2.55,5.72l-5.63,33.54c-0.36,2.14-2.05,3.04-3.84,2.01
					C176.67,277.05,175.5,274.51,175.86,272.36z M156.66,261.29l5.63-33.54c0.36-2.14,2.05-3.04,3.84-2.01
					c1.79,1.03,2.9,3.57,2.55,5.72l-5.58,33.54c-0.4,2.14-2.1,3.04-3.88,2.01C157.46,265.98,156.3,263.43,156.66,261.29z
					 M137.46,250.21l5.63-33.54c0.36-2.14,2.1-3.04,3.84-2.01c1.79,0.98,2.9,3.57,2.54,5.72l-5.58,33.49
					c-0.36,2.14-2.1,3.08-3.88,2.05C138.26,254.9,137.1,252.36,137.46,250.21z M118.25,239.09l5.63-33.49
					c0.36-2.14,2.1-3.08,3.84-2.05c1.79,1.03,2.9,3.62,2.55,5.76l-5.58,33.49c-0.36,2.14-2.1,3.08-3.89,2.05
					C119.06,243.83,117.9,241.24,118.25,239.09z M99.05,228.02l5.63-33.49c0.36-2.14,2.1-3.08,3.84-2.05
					c1.79,1.03,2.9,3.57,2.55,5.72l-5.58,33.54c-0.36,2.14-2.1,3.04-3.84,2.01C99.86,232.75,98.69,230.16,99.05,228.02z
					 M79.89,216.94l5.58-33.49c0.36-2.19,2.1-3.08,3.84-2.05c1.79,1.03,2.9,3.57,2.55,5.72l-5.58,33.54
					c-0.36,2.14-2.1,3.04-3.84,2.01C80.65,221.63,79.49,219.09,79.89,216.94z M60.69,205.87l5.58-33.54
					c0.36-2.14,2.1-3.04,3.84-2.01c1.79,1.03,2.95,3.57,2.55,5.72l-5.58,33.49c-0.36,2.14-2.1,3.08-3.84,2.05
					C61.45,210.56,60.33,208.01,60.69,205.87z M195.07,283.45l5.61-33.51c0.36-2.15,2.08-3.06,3.85-2.04
					c1.77,1.02,2.91,3.59,2.55,5.73l-5.61,33.51c-0.36,2.15-2.08,3.06-3.85,2.04C195.85,288.16,194.71,285.59,195.07,283.45z
					 M175.87,272.36l5.61-33.51c0.36-2.15,2.08-3.06,3.85-2.04c1.77,1.02,2.91,3.59,2.55,5.73l-5.61,33.51
					c-0.36,2.15-2.08,3.06-3.85,2.04C176.65,277.07,175.51,274.51,175.87,272.36z M156.67,261.28l5.61-33.51
					c0.36-2.15,2.08-3.06,3.85-2.04c1.77,1.02,2.91,3.59,2.55,5.73l-5.61,33.51c-0.36,2.15-2.08,3.06-3.85,2.04
					C157.45,265.99,156.31,263.42,156.67,261.28z M137.47,250.19l5.61-33.51c0.36-2.15,2.08-3.06,3.85-2.04
					c1.77,1.02,2.91,3.59,2.55,5.73l-5.61,33.51c-0.36,2.15-2.08,3.06-3.85,2.04C138.25,254.91,137.11,252.34,137.47,250.19z
					 M118.27,239.11l5.61-33.51c0.36-2.15,2.08-3.06,3.85-2.04c1.77,1.02,2.91,3.59,2.55,5.73l-5.61,33.51
					c-0.36,2.15-2.08,3.06-3.85,2.04C119.05,243.82,117.91,241.25,118.27,239.11z M99.07,228.02l5.61-33.51
					c0.36-2.15,2.08-3.06,3.85-2.04c1.77,1.02,2.91,3.59,2.55,5.73l-5.61,33.51c-0.36,2.15-2.08,3.06-3.85,2.04
					C99.85,232.74,98.71,230.17,99.07,228.02z M79.87,216.94l5.61-33.51c0.36-2.15,2.08-3.06,3.85-2.04
					c1.77,1.02,2.91,3.59,2.55,5.73l-5.61,33.51c-0.36,2.15-2.08,3.06-3.85,2.04C80.65,221.65,79.51,219.09,79.87,216.94z
					 M60.67,205.86l5.61-33.51c0.36-2.15,2.08-3.06,3.85-2.04c1.77,1.02,2.91,3.59,2.55,5.73l-5.61,33.51
					c-0.36,2.15-2.08,3.06-3.85,2.04C61.46,210.57,60.31,208,60.67,205.86z M195.07,283.45l5.61-33.51
					c0.36-2.15,2.08-3.06,3.85-2.04c1.77,1.02,2.91,3.59,2.55,5.73l-5.61,33.51c-0.36,2.15-2.08,3.06-3.85,2.04
					C195.85,288.16,194.71,285.59,195.07,283.45z M175.87,272.36l5.61-33.51c0.36-2.15,2.08-3.06,3.85-2.04
					c1.77,1.02,2.91,3.59,2.55,5.73l-5.61,33.51c-0.36,2.15-2.08,3.06-3.85,2.04C176.65,277.07,175.51,274.51,175.87,272.36z
					 M156.67,261.28l5.61-33.51c0.36-2.15,2.08-3.06,3.85-2.04c1.77,1.02,2.91,3.59,2.55,5.73l-5.61,33.51
					c-0.36,2.15-2.08,3.06-3.85,2.04C157.45,265.99,156.31,263.42,156.67,261.28z M137.47,250.19l5.61-33.51
					c0.36-2.15,2.08-3.06,3.85-2.04c1.77,1.02,2.91,3.59,2.55,5.73l-5.61,33.51c-0.36,2.15-2.08,3.06-3.85,2.04
					C138.25,254.91,137.11,252.34,137.47,250.19z M118.27,239.11l5.61-33.51c0.36-2.15,2.08-3.06,3.85-2.04
					c1.77,1.02,2.91,3.59,2.55,5.73l-5.61,33.51c-0.36,2.15-2.08,3.06-3.85,2.04C119.05,243.82,117.91,241.25,118.27,239.11z
					 M99.07,228.02l5.61-33.51c0.36-2.15,2.08-3.06,3.85-2.04c1.77,1.02,2.91,3.59,2.55,5.73l-5.61,33.51
					c-0.36,2.15-2.08,3.06-3.85,2.04C99.85,232.74,98.71,230.17,99.07,228.02z M79.87,216.94l5.61-33.51
					c0.36-2.15,2.08-3.06,3.85-2.04c1.77,1.02,2.91,3.59,2.55,5.73l-5.61,33.51c-0.36,2.15-2.08,3.06-3.85,2.04
					C80.65,221.65,79.51,219.09,79.87,216.94z M60.67,205.86l5.61-33.51c0.36-2.15,2.08-3.06,3.85-2.04
					c1.77,1.02,2.91,3.59,2.55,5.73l-5.61,33.51c-0.36,2.15-2.08,3.06-3.85,2.04C61.46,210.57,60.31,208,60.67,205.86z"/>
				<polygon class="st6" points="362.83,223.94 369.75,227.38 364.01,230.06 				"/>
				<polygon class="st10" points="362.83,223.94 369.75,227.38 364.01,230.06 				"/>
				<path class="st6" d="M208.37,332.34L33.27,231.24c-1.13-0.65-2.05-2.24-2.05-3.54l0-10.05c0-0.65,0.23-1.37,0.6-2.02
					l184.99,106.8v7.39l-4.35,2.51C211.34,332.99,209.49,332.99,208.37,332.34z"/>
				<path class="st10" d="M208.37,332.34L33.27,231.24c-1.13-0.65-2.05-2.24-2.05-3.54l0-10.05c0-0.65,0.23-1.37,0.6-2.02
					l184.99,106.8v7.39l-4.35,2.51C211.34,332.99,209.49,332.99,208.37,332.34z"/>
				<path class="st10" d="M33.27,214.1l2.31-1.33c0.55-0.32,1.09-0.86,1.52-1.48l186.11,107.45l-6.4,3.69L31.83,215.63
					C32.2,214.99,32.71,214.43,33.27,214.1z"/>
				<path class="st10" d="M47.97,145.86c1.31-8.31,8.08-18.37,15.33-22.96l199.22,114.02l-12.94,7.47
					c-1.13,0.65-2.21,2.23-2.41,3.52l-2.62,16.63L47.22,150.62L47.97,145.86z"/>
				<path class="st6" d="M344.36,253.6c0.25,1.28,1.37,1.79,2.49,1.14l21.51-12.42c1.13-0.65,2.05-2.24,2.05-3.54v-10.05
					c0-1.3-0.92-1.83-2.05-1.18l-2.31,1.33c-1.13,0.65-2.25,0.14-2.49-1.14l-9.38-48.72c-1.64-8.54-9.09-11.94-16.62-7.59
					l-94.31,54.45c-7.54,4.35-14.74,14.85-16.09,23.44l-9.98,63.39c-0.2,1.28-1.29,2.87-2.41,3.52l-2.31,1.33
					c-1.13,0.65-2.05,2.25-2.05,3.54v10.05c0,1.3,0.92,1.83,2.05,1.18l21.51-12.42c1.13-0.65,2.21-2.23,2.41-3.52l10.79-68.49
					c0.2-1.28,1.29-2.87,2.41-3.52l81.66-47.15c1.13-0.65,2.25-0.14,2.49,1.14L344.36,253.6z"/>
			</g>
			<g>
				<path class="st6" d="M195.06,283.44c-0.05,0.33-0.06,0.67-0.05,1.02c0.04,1.13,0.43,2.27,1.05,3.21
					c0.42,0.64,0.95,1.19,1.54,1.54c0.5,0.27,0.98,0.39,1.44,0.38c1.19,0,2.16-0.89,2.42-2.44l4.1-24.5l1.51-8.99
					c0.05-0.32,0.06-0.66,0.05-0.99c-0.04-1.34-0.57-2.73-1.41-3.74c-0.35-0.42-0.75-0.77-1.19-1.03c-0.86-0.5-1.7-0.52-2.38-0.19
					c-0.73,0.35-1.29,1.12-1.48,2.23l-4.57,27.31L195.06,283.44z M175.86,272.36c-0.1,0.62-0.07,1.27,0.06,1.92
					c0.31,1.58,1.24,3.09,2.49,3.82c1.77,1.02,3.49,0.11,3.85-2.04l5.61-33.51c0.36-2.15-0.78-4.71-2.55-5.73
					c-1.77-1.02-3.49-0.11-3.85,2.04l-4.31,25.77L175.86,272.36z M156.66,261.29c-0.19,1.13,0.05,2.36,0.57,3.43
					c0.4,0.83,0.97,1.55,1.66,2.05c0.11,0.08,0.21,0.17,0.32,0.23c0.22,0.13,0.45,0.23,0.67,0.3c0.08,0.03,0.15,0.03,0.23,0.05
					c1.43,0.32,2.65-0.57,2.99-2.35l4.56-27.41l1.03-6.13c0.13-0.78,0.06-1.6-0.16-2.4c-0.01-0.03-0.01-0.06-0.02-0.09
					c-0.01-0.04-0.03-0.08-0.04-0.11c-0.16-0.5-0.37-0.99-0.64-1.43c-0.44-0.72-1.02-1.32-1.68-1.7c-0.66-0.38-1.32-0.49-1.9-0.37
					c-0.73,0.15-1.33,0.68-1.68,1.5c-0.12,0.27-0.22,0.57-0.28,0.9l-2.68,16.04L156.66,261.29z M137.46,250.21
					c-0.36,2.14,0.8,4.69,2.55,5.72c1.79,1.03,3.53,0.09,3.88-2.05l3.76-22.54l1.83-10.95c0.17-1.01,0-2.1-0.4-3.09
					c-0.25-0.62-0.59-1.2-1.02-1.68c-0.34-0.39-0.71-0.72-1.13-0.96c-1.77-1.02-3.49-0.11-3.85,2.04l-1.84,11L137.46,250.21z
					 M118.25,239.09c-0.36,2.14,0.8,4.73,2.55,5.76c1.79,1.03,3.53,0.09,3.89-2.05l3.55-21.33l2.04-12.18
					c0.22-1.34-0.14-2.85-0.87-4.04c-0.44-0.72-1.01-1.32-1.68-1.71c-1.06-0.63-2.12-0.51-2.87,0.15c-0.48,0.42-0.84,1.06-0.98,1.9
					l-0.6,3.56L118.25,239.09z M99.05,228.02c-0.22,1.34,0.15,2.84,0.89,4.03c0.44,0.72,1.02,1.32,1.68,1.71
					c0.94,0.54,1.86,0.53,2.57,0.08c0.64-0.38,1.12-1.1,1.29-2.12l2.24-13.43l3.36-20.09c0.36-2.15-0.78-4.71-2.55-5.73
					c-0.03-0.02-0.06-0.02-0.08-0.04c-0.65-0.37-1.3-0.46-1.88-0.31c-0.94,0.23-1.67,1.07-1.89,2.38l-0.3,1.81L99.05,228.02z
					 M79.87,216.94c-0.09,0.56-0.08,1.16,0.02,1.74c0.08,0.53,0.24,1.05,0.46,1.54c0.46,1.04,1.19,1.94,2.07,2.45
					c0.66,0.38,1.32,0.49,1.9,0.37c0.97-0.2,1.73-1.05,1.95-2.39l1.85-11.13l3.75-22.4c0.36-2.15-0.78-4.71-2.55-5.73
					c-0.41-0.23-0.81-0.36-1.19-0.39c-1.21-0.13-2.25,0.68-2.59,2.18c-0.02,0.08-0.05,0.16-0.07,0.25l0,0.01c0,0,0,0.01,0,0.01
					l-0.2,1.2L79.87,216.94z M63.22,211.59c1.77,1.02,3.49,0.11,3.85-2.04l0-0.01c0,0,0,0,0-0.01l0.15-0.88l5.46-32.61
					c0.11-0.67,0.06-1.38-0.09-2.07c-0.06-0.29-0.15-0.57-0.25-0.85c-0.44-1.19-1.22-2.25-2.21-2.82c-0.77-0.44-1.52-0.5-2.16-0.27
					c-0.84,0.29-1.49,1.08-1.69,2.3l-1.93,11.59l-3.67,21.94C60.31,208,61.46,210.57,63.22,211.59z"/>
				<path class="st4" d="M195.06,283.44c-0.05,0.33-0.06,0.67-0.05,1.02c0.04,1.13,0.43,2.27,1.05,3.21
					c0.42,0.64,0.95,1.19,1.54,1.54c0.5,0.27,0.98,0.39,1.44,0.38c1.19,0,2.16-0.89,2.42-2.44l4.1-24.5l1.51-8.99
					c0.05-0.32,0.06-0.66,0.05-0.99c-0.04-1.34-0.57-2.73-1.41-3.74c-0.35-0.42-0.75-0.77-1.19-1.03c-0.86-0.5-1.7-0.52-2.38-0.19
					c-0.73,0.35-1.29,1.12-1.48,2.23l-4.57,27.31L195.06,283.44z M175.86,272.36c-0.1,0.62-0.07,1.27,0.06,1.92
					c0.31,1.58,1.24,3.09,2.49,3.82c1.77,1.02,3.49,0.11,3.85-2.04l5.61-33.51c0.36-2.15-0.78-4.71-2.55-5.73
					c-1.77-1.02-3.49-0.11-3.85,2.04l-4.31,25.77L175.86,272.36z M156.66,261.29c-0.19,1.13,0.05,2.36,0.57,3.43
					c0.4,0.83,0.97,1.55,1.66,2.05c0.11,0.08,0.21,0.17,0.32,0.23c0.22,0.13,0.45,0.23,0.67,0.3c0.08,0.03,0.15,0.03,0.23,0.05
					c1.43,0.32,2.65-0.57,2.99-2.35l4.56-27.41l1.03-6.13c0.13-0.78,0.06-1.6-0.16-2.4c-0.01-0.03-0.01-0.06-0.02-0.09
					c-0.01-0.04-0.03-0.08-0.04-0.11c-0.16-0.5-0.37-0.99-0.64-1.43c-0.44-0.72-1.02-1.32-1.68-1.7c-0.66-0.38-1.32-0.49-1.9-0.37
					c-0.73,0.15-1.33,0.68-1.68,1.5c-0.12,0.27-0.22,0.57-0.28,0.9l-2.68,16.04L156.66,261.29z M137.46,250.21
					c-0.36,2.14,0.8,4.69,2.55,5.72c1.79,1.03,3.53,0.09,3.88-2.05l3.76-22.54l1.83-10.95c0.17-1.01,0-2.1-0.4-3.09
					c-0.25-0.62-0.59-1.2-1.02-1.68c-0.34-0.39-0.71-0.72-1.13-0.96c-1.77-1.02-3.49-0.11-3.85,2.04l-1.84,11L137.46,250.21z
					 M118.25,239.09c-0.36,2.14,0.8,4.73,2.55,5.76c1.79,1.03,3.53,0.09,3.89-2.05l3.55-21.33l2.04-12.18
					c0.22-1.34-0.14-2.85-0.87-4.04c-0.44-0.72-1.01-1.32-1.68-1.71c-1.06-0.63-2.12-0.51-2.87,0.15c-0.48,0.42-0.84,1.06-0.98,1.9
					l-0.6,3.56L118.25,239.09z M99.05,228.02c-0.22,1.34,0.15,2.84,0.89,4.03c0.44,0.72,1.02,1.32,1.68,1.71
					c0.94,0.54,1.86,0.53,2.57,0.08c0.64-0.38,1.12-1.1,1.29-2.12l2.24-13.43l3.36-20.09c0.36-2.15-0.78-4.71-2.55-5.73
					c-0.03-0.02-0.06-0.02-0.08-0.04c-0.65-0.37-1.3-0.46-1.88-0.31c-0.94,0.23-1.67,1.07-1.89,2.38l-0.3,1.81L99.05,228.02z
					 M79.87,216.94c-0.09,0.56-0.08,1.16,0.02,1.74c0.08,0.53,0.24,1.05,0.46,1.54c0.46,1.04,1.19,1.94,2.07,2.45
					c0.66,0.38,1.32,0.49,1.9,0.37c0.97-0.2,1.73-1.05,1.95-2.39l1.85-11.13l3.75-22.4c0.36-2.15-0.78-4.71-2.55-5.73
					c-0.41-0.23-0.81-0.36-1.19-0.39c-1.21-0.13-2.25,0.68-2.59,2.18c-0.02,0.08-0.05,0.16-0.07,0.25l0,0.01c0,0,0,0.01,0,0.01
					l-0.2,1.2L79.87,216.94z M63.22,211.59c1.77,1.02,3.49,0.11,3.85-2.04l0-0.01c0,0,0,0,0-0.01l0.15-0.88l5.46-32.61
					c0.11-0.67,0.06-1.38-0.09-2.07c-0.06-0.29-0.15-0.57-0.25-0.85c-0.44-1.19-1.22-2.25-2.21-2.82c-0.77-0.44-1.52-0.5-2.16-0.27
					c-0.84,0.29-1.49,1.08-1.69,2.3l-1.93,11.59l-3.67,21.94C60.31,208,61.46,210.57,63.22,211.59z"/>
			</g>
			<g>
				<path class="st6" d="M162.63,287.21l9.39-5.42l12.8,7.39v7.39l-6.4,3.69v28.17l7.6,4.39l-10.59,6.11
					c-0.97,0.56-1.84,0.6-2.46,0.21c-0.59-0.37-12.15-7-12.77-7.37c-0.61-0.36-0.98-1.12-0.98-2.2v-36.46
					C159.21,290.94,160.74,288.3,162.63,287.21z"/>
				<path class="st11" d="M162.63,287.21l9.39-5.42l12.8,7.39v7.39l-6.4,3.69v28.17l7.6,4.39l-10.59,6.11
					c-0.97,0.56-1.84,0.6-2.46,0.21c-0.59-0.37-12.15-7-12.77-7.37c-0.61-0.36-0.98-1.12-0.98-2.2v-36.46
					C159.21,290.94,160.74,288.3,162.63,287.21z"/>
				<path class="st6" d="M159.21,293.09v36.5c0,1.07,0.38,1.83,0.98,2.17c0.58,0.36,11.11,6.4,12.62,7.28
					c-0.5-0.41-0.8-1.12-0.8-2.08v-36.46c0-1.09,0.38-2.3,1.01-3.37l-12.81-7.39C159.59,290.82,159.21,292.01,159.21,293.09z"/>
				<path class="st12" d="M159.21,293.09v36.5c0,1.07,0.38,1.83,0.98,2.17c0.58,0.36,11.11,6.4,12.62,7.28
					c-0.5-0.41-0.8-1.12-0.8-2.08v-36.46c0-1.09,0.38-2.3,1.01-3.37l-12.81-7.39C159.59,290.82,159.21,292.01,159.21,293.09z"/>
				<path class="st6" d="M178.41,300.26l6.4-3.69v-7.39l-9.39,5.42c-1.88,1.09-3.41,3.73-3.41,5.91v36.46
					c0,2.18,1.53,3.06,3.41,1.97l10.59-6.11l-7.6-4.39V300.26z"/>
				<path class="st13" d="M178.41,300.26l6.4-3.69v-7.39l-9.39,5.42c-1.88,1.09-3.41,3.73-3.41,5.91v36.46
					c0,2.18,1.53,3.06,3.41,1.97l10.59-6.11l-7.6-4.39V300.26z"/>
			</g>
			<g>
				<path class="st6" d="M60.23,228.09l9.39-5.42l12.8,7.39v7.39l-6.4,3.69v28.17l7.6,4.39l-10.59,6.11
					c-0.97,0.56-1.84,0.6-2.46,0.21c-0.59-0.37-12.15-7-12.77-7.37c-0.61-0.36-0.98-1.12-0.98-2.2V234
					C56.82,231.83,58.35,229.18,60.23,228.09z"/>
				<path class="st11" d="M60.23,228.09l9.39-5.42l12.8,7.39v7.39l-6.4,3.69v28.17l7.6,4.39l-10.59,6.11
					c-0.97,0.56-1.84,0.6-2.46,0.21c-0.59-0.37-12.15-7-12.77-7.37c-0.61-0.36-0.98-1.12-0.98-2.2V234
					C56.82,231.83,58.35,229.18,60.23,228.09z"/>
				<path class="st6" d="M56.82,233.97v36.5c0,1.07,0.38,1.83,0.98,2.17c0.58,0.36,11.11,6.4,12.62,7.28
					c-0.5-0.41-0.8-1.12-0.8-2.08V241.4c0-1.09,0.38-2.3,1.01-3.37l-12.81-7.39C57.2,231.71,56.82,232.89,56.82,233.97z"/>
				<path class="st12" d="M56.82,233.97v36.5c0,1.07,0.38,1.83,0.98,2.17c0.58,0.36,11.11,6.4,12.62,7.28
					c-0.5-0.41-0.8-1.12-0.8-2.08V241.4c0-1.09,0.38-2.3,1.01-3.37l-12.81-7.39C57.2,231.71,56.82,232.89,56.82,233.97z"/>
				<path class="st6" d="M76.02,241.15l6.4-3.69v-7.39l-9.39,5.42c-1.88,1.09-3.41,3.73-3.41,5.91v36.46c0,2.18,1.53,3.06,3.41,1.97
					l10.59-6.11l-7.6-4.39V241.15z"/>
				<path class="st13" d="M76.02,241.15l6.4-3.69v-7.39l-9.39,5.42c-1.88,1.09-3.41,3.73-3.41,5.91v36.46
					c0,2.18,1.53,3.06,3.41,1.97l10.59-6.11l-7.6-4.39V241.15z"/>
			</g>
			<g>
				<g>
					<path class="st5" d="M161.43,126.27l10.62-6.2c0.47-0.27,1.24-0.28,1.71-0.01l10.36,5.92c0.47,0.27,0.86,0.93,0.86,1.48l0,0.66
						c0,0.55-0.38,1.21-0.85,1.49l-10.62,6.2c-0.47,0.27-1.24,0.28-1.71,0.01l-10.36-5.92c-0.47-0.27-0.86-0.93-0.86-1.48l0-0.66
						C160.58,127.21,160.96,126.54,161.43,126.27z"/>
					<path class="st2" d="M173.83,120.02l10.36,5.92c0.47,0.27,0.48,0.71,0,0.99l-10.62,6.2c-0.47,0.27-1.24,0.28-1.71,0.01
						l-10.36-5.92c-0.47-0.27-0.48-0.71,0-0.99l10.62-6.2C172.59,119.75,173.36,119.74,173.83,120.02z"/>
				</g>
				<g>
					<path class="st5" d="M217.95,158.87l10.62-6.2c0.47-0.27,1.24-0.28,1.71-0.01l10.36,5.92c0.47,0.27,0.86,0.93,0.86,1.48l0,0.66
						c0,0.55-0.38,1.21-0.85,1.49l-10.62,6.2c-0.47,0.27-1.24,0.28-1.71,0.01l-10.36-5.92c-0.47-0.27-0.86-0.93-0.86-1.48l0-0.66
						C217.1,159.81,217.48,159.15,217.95,158.87z"/>
					<path class="st2" d="M230.36,152.62l10.36,5.92c0.47,0.27,0.48,0.71,0,0.99l-10.62,6.2c-0.47,0.27-1.24,0.28-1.71,0.01
						l-10.36-5.92c-0.47-0.27-0.48-0.71,0-0.99l10.62-6.2C229.12,152.35,229.88,152.35,230.36,152.62z"/>
				</g>
				<g id="XMLID_00000067957040444820435750000014995474964125285261_">
					<path id="XMLID_00000115512409533320203190000014253203427827807155_" class="st6" d="M180.28,105.49l-0.01,20.29l-7.94,4.58
						l0.02-26.95c0-1.39,0.97-1.95,2.17-1.26L180.28,105.49z"/>
					<path id="XMLID_00000162328443104692382390000001772403404876660638_" class="st13" d="M180.28,105.49l-0.01,20.29l-7.94,4.58
						l0.02-26.95c0-1.39,0.97-1.95,2.17-1.26L180.28,105.49z"/>
					<path id="XMLID_00000145032709651327618650000012747193540724667281_" class="st6" d="M236.04,125.58l-0.02,32.85l-7.58,4.38
						l-5.1-2.96l0.02-26.95c0-1.38-0.98-3.08-2.17-3.77l-38.64-22.34l-8.03-4.64c-1.2-0.69-2.17-0.14-2.17,1.26l-0.02,26.95
						l-5.11-2.96l0.02-32.84c0-0.14,0.01-0.29,0.04-0.43c0.16-1.29,1.07-2.72,2.15-3.34l3.23-1.87c1.19-0.69,3.14-0.69,4.35,0
						l56.87,32.88C235.07,122.51,236.04,124.2,236.04,125.58z"/>
					<path id="XMLID_00000029738280272834441790000008174661384728878248_" class="st11" d="M236.04,125.58l-0.02,32.85l-7.58,4.38
						l-5.1-2.96l0.02-26.95c0-1.38-0.98-3.08-2.17-3.77l-38.64-22.34l-8.03-4.64c-1.2-0.69-2.17-0.14-2.17,1.26l-0.02,26.95
						l-5.11-2.96l0.02-32.84c0-0.14,0.01-0.29,0.04-0.43c0.16-1.29,1.07-2.72,2.15-3.34l3.23-1.87c1.19-0.69,3.14-0.69,4.35,0
						l56.87,32.88C235.07,122.51,236.04,124.2,236.04,125.58z"/>
					<path id="XMLID_00000072962771068481368160000007293340800509026207_" class="st11" d="M228.46,129.96l-0.02,32.85l-5.1-2.96
						l0.02-26.95c0-1.38-0.98-3.08-2.17-3.77l-38.64-22.34l-8.03-4.64c-1.2-0.69-2.17-0.14-2.17,1.26l-0.02,26.95l-5.11-2.96
						l0.02-32.84c0-0.14,0.01-0.29,0.04-0.43c0.19-1.07,1.08-1.44,2.15-0.83l56.87,32.88C227.48,126.89,228.46,128.58,228.46,129.96
						z"/>
				</g>
			</g>
		</g>
		<g>
			<path class="st14" d="M441.72,135.37c-0.24-1.27-1.37-1.79-2.49-1.14l-81.67,47.15c-1.12,0.65-2.21,2.24-2.41,3.52L344,255.72
				l11.15,57.97c0.21,1.05,1.3,1.37,2.42,0.72l81.66-47.13c1.12-0.66,2.24-2.46,2.49-4.01l11.07-70.36L441.72,135.37z
				 M438.23,261.77l-79.68,45.99l-10.46-54.4l10.47-66.47l79.67-46l10.47,54.37L438.23,261.77z"/>
			<g>
				<polygon class="st14" points="442.66,158.58 353.9,209.83 353.9,205.57 442.66,154.32 				"/>
				<polygon class="st14" points="447.03,177.21 349.52,233.51 349.52,229.25 447.03,172.96 				"/>
				<polygon class="st14" points="450.42,196.42 346.14,256.62 346.14,252.37 450.42,192.16 				"/>
				<polygon class="st14" points="447.03,219.53 349.52,275.83 349.52,271.58 447.03,215.28 				"/>
				<polygon class="st14" points="443.59,242.68 352.96,295.01 352.96,290.75 443.59,238.42 				"/>
			</g>
			<g>
				<polygon class="st14" points="396.75,289.43 396.75,162.93 399.52,161.33 399.52,287.84 				"/>
				<polygon class="st14" points="379.21,299.57 379.21,173.06 381.97,171.46 381.97,297.97 				"/>
				<polygon class="st14" points="361.66,309.7 361.66,183.19 364.42,181.6 364.42,308.1 				"/>
				<polygon class="st14" points="417.58,277.41 417.58,150.9 414.82,152.5 414.82,279 				"/>
				<polygon class="st14" points="435.13,267.27 435.13,140.77 432.37,142.37 432.37,268.87 				"/>
			</g>
		</g>
	</g>
</g>
<g id="Cat_00000150098086840198736810000017351181811466631079_">
	<g id="Cat">
		<g>
			<g>
				<path class="st15" d="M445.7,363.89c-1.5-11.54-2.86-17.99-6.56-28.21c-0.75-2.07-1.25-5.63-3.91-4.57
					c-8.03,3.2-16,7.5-21.06,14.51c-4.15,5.76-6.02,12.91-10.1,18.73c5.06,0.25,9.85,2.89,13.21,6.69
					c3.36,3.79,5.37,8.66,6.27,13.64c1.08,5.97-3.7,11.53-2.81,17.73c0.43,2.99,2.84,5.7,5.66,5.73c0.78,0.01,2.56,0.23,4.14-0.59
					c3.72-1.94,4.92-3.25,6.82-5.7c5.98-7.71,8.67-14.53,9.18-23.72C446.68,375.41,446.05,366.58,445.7,363.89z"/>
			</g>
		</g>
		<g>
			<path class="st16" d="M429.24,407.99c0.53-0.39,1.03-0.82,1.5-1.28c1.22-1.21,2.29-2.72,2.93-4.31c0.19-0.48,0.57,0.05,0.45,0.39
				c-0.32,0.9-0.68,1.81-1.17,2.62c-0.27,0.44-0.56,0.86-0.88,1.27c-0.46,0.27-0.96,0.55-1.53,0.85
				C430.11,407.76,429.67,407.9,429.24,407.99z"/>
			<path class="st16" d="M422.77,406.47c1.07-0.2,2.09-0.63,2.95-1.29c1.27-0.96,2.4-2.19,2.87-3.75c0.15-0.48,0.55,0,0.49,0.32
				c-0.29,1.68-0.89,3.21-2.07,4.47c-0.62,0.66-1.39,1.18-2.22,1.56C424.06,407.51,423.36,407.06,422.77,406.47z"/>
		</g>
		<g>
			<path class="st15" d="M336.55,263.65c-0.01-0.08-0.01-0.15-0.02-0.22c-0.62-6.35-5.93-10.69-10.93-14.01
				c-5.15-3.41-11.19-5.8-17.42-6.01c-16.62-0.56-33.81,6.08-42.44,20.92c-4.02,6.91-6.21,14.73-7.43,22.62
				c-0.9,5.83-0.7,11.2-3.32,16.55c-2.36,4.82-7,6.38-10.74,6.5c5.37,5.03,12.96,7.7,20.29,7.14c8.75-0.66,16.23-5.8,20.66-12.98
				c5.49-8.92,7.53-19.56,13.43-28.08c6.78-9.79,19.97-15.26,31.06-9.53c1.73,0.89,3.83,2.02,5.47,0.96
				C336.36,266.72,336.65,265.1,336.55,263.65z"/>
			<path class="st0" d="M264.54,317.13c8.75-0.66,16.23-5.8,20.66-12.98c0.78-1.27,1.49-2.58,2.15-3.91
				c-1.77,1.93-3.92,3.53-6.31,4.68c1.51-0.73,4.17-10.58,2.68-10.57c-0.3,0-0.56,0.19-0.79,0.38c-2.64,2.08-4.66,4.57-7.71,6.1
				c0.45-5.04,2.42-9.91,2.2-14.97c-0.01-0.33-0.11-0.74-0.44-0.82c-0.17-0.04-0.35,0.04-0.5,0.13c-0.91,0.51-1.64,1.27-2.34,2.04
				c-2.44,2.69-4.64,5.57-6.58,8.62c0.2-3.44,0.7-6.86,1.49-10.21c0.35-1.49,0.73-3.18-0.14-4.48c-2.66,1.07-4.84,3.19-5.96,5.79
				c-0.1-7.12,0.27-14.04,1.87-20.96c-3.45,6.49-5.42,13.7-6.54,20.98c-0.9,5.83-0.7,11.2-3.32,16.55c-2.36,4.82-7,6.38-10.74,6.5
				C249.62,315.02,257.21,317.69,264.54,317.13z"/>
		</g>
		<g>
			<g>
				<path class="st15" d="M327.6,319.72c8.94-7.56,6.42-17.81,5.13-28.08c-0.78-6.22-0.69-12.54,0.25-18.73
					c0.64-4.2,1.83-7.21,5.56-9.38c3.39-1.97,7.53-2.55,11.39-2.11c13.35,1.52,25.9,13.73,29.32,26.45
					c2.29,8.52,1.46,17.84-1.94,25.96c-2.8,6.7-10.3,12.62-16.81,15.5c-2.17,0.96-4.45,1.71-6.54,2.85
					c-4.5,2.44-7.88,6.5-10.93,10.61c-1.25,1.68-2.47,3.41-3.15,5.39c-0.6,1.76-1.1,4.08-0.88,5.94c0.27,2.28,1.49,4.76,2.18,6.95
					c0.2,0.62,0.39,1.25,0.52,1.89c0.71,3.46-0.37,6.5-3.92,7.57c-2.5,0.76-5.27-0.12-7.36-1.69c-2.09-1.57-3.62-3.75-5.07-5.92
					c-7.58-11.28-3.03-24.84-1.15-37.29c0.16-1.06,0.33-2.14,0.82-3.1C325.63,321.4,326.62,320.54,327.6,319.72z"/>
				<g>
					<path class="st16" d="M340.54,368.82c0.21-1.27,0.15-2.57-0.15-3.82c-0.31-1.3-0.84-2.56-1.49-3.73
						c-0.54-0.99-1.25-2.19-2.31-2.69c-0.3-0.14-0.33,0.37-0.19,0.52c0.81,0.89,1.25,1.91,1.69,3.02c0.4,1,0.71,2.05,0.9,3.11
						c0.18,1.04,0.19,2.11,0.01,3.15c-0.13,0.71-0.39,1.33-0.69,1.94C339.24,369.96,339.98,369.45,340.54,368.82z"/>
					<path class="st16" d="M335.89,369.76c0.24-1.21,0.24-2.51,0-3.72c-0.53-2.66-2-5.16-4.15-6.84c-0.38-0.29-0.62,0.22-0.37,0.52
						c1.42,1.69,2.38,3.64,2.77,5.83c0.3,1.69,0.31,3.41-0.36,4.94c0.6,0.17,1.2,0.26,1.81,0.29
						C335.71,370.45,335.82,370.1,335.89,369.76z"/>
				</g>
			</g>
			<path class="st17" d="M431.56,303.35l-39.64-15.01c-15.58-7.23-17.92-23.18-40.01-29.37c-11.15-3.12-25.17-2.33-33.5,5.31
				c-8.47,7.77-3.33,24.42-0.58,33.54c2.4,7.97,5.46,15.74,8.77,23.37c1.69,3.88,7.94,20.47,9.35,21.59
				c4.66,3.71,9.19,10.73,13.09,16.33c2.79,4.02,7.54,8.86,12.24,11.93c-0.86,12.59-0.76,28.87,4.76,46.06
				c1.09,3.4,2.69,6.57,4.41,9.72c1.98,3.63,5.05,6.95,9.06,7.95c1.12,0.28,2.32,0.37,3.43,0.05c2.48-0.73,4.55-2.56,4.74-5.87
				c0.24-4.24-0.77-8.94-1.13-13.18c-0.38-4.5-0.33-10.57,0.84-14.95c1.71-6.39,3.34-12.17,7.76-19.08
				c17.03-3.21,29.95-8.95,37.16-25.64C441.93,333.79,423.69,314.25,431.56,303.35z"/>
			<path class="st15" d="M379.25,424.57c-0.19-0.18-0.64-0.24-0.62,0.15c0.05,1.11,0.62,2.2,0.87,3.28c0.24,1.04,0.37,2.13,0.38,3.2
				c0,1.03-0.12,2.05-0.37,3.04c-0.04,0.16-0.09,0.32-0.15,0.49c0.05,0.01,0.11,0.04,0.16,0.05c0.51,0.13,1.03,0.21,1.56,0.24
				c0.05-0.2,0.1-0.4,0.14-0.58c0.26-1.12,0.37-2.28,0.35-3.43C381.51,428.77,380.92,426.17,379.25,424.57z M386.02,429.62
				c-0.05-0.98-0.25-1.94-0.58-2.87c-0.36-1.03-0.93-1.84-1.71-2.61c-0.3-0.3-0.93-0.18-0.72,0.33c0.72,1.72,1.27,3.49,1.35,5.37
				c0.05,1-0.05,2.01-0.21,3c-0.08,0.47-0.16,0.94-0.24,1.41c-0.01,0.07-0.02,0.14-0.03,0.21c0.69-0.31,1.32-0.72,1.87-1.24
				c0.03-0.15,0.08-0.3,0.1-0.45C386.03,431.74,386.08,430.68,386.02,429.62z"/>
			<g>
				<path class="st18" d="M337.82,344.69c-0.81-1.02-1.82-1.96-2.99-2.73c8.15-3.98,13.01-22.56,13.01-22.56
					S347.23,338.04,337.82,344.69z"/>
			</g>
			<g>
				<path class="st15" d="M337.82,344.69c-0.81-1.02-1.82-1.96-2.99-2.73c8.15-3.98,13.01-22.56,13.01-22.56
					S347.23,338.04,337.82,344.69z"/>
			</g>
			<g>
				<path class="st17" d="M327.15,348.58c-2.17,0.96-4.45,1.71-6.54,2.85c-4.5,2.44-7.88,6.5-10.93,10.61
					c-1.25,1.68-2.47,3.41-3.15,5.39c-2.04,5.96,2.35,11.02,2.14,16.91c-0.21,6.2-7.62,6.74-11.59,3.75
					c-2.09-1.57-3.62-3.75-5.07-5.92c-7.58-11.28-3.03-24.84-1.14-37.29c0.16-1.06,0.33-2.14,0.82-3.1
					c0.59-1.13,1.58-1.98,2.56-2.81c5.61-4.75,8.01-10.16,7.27-17.41c-0.88-8.66-1.21-17.48,0.41-26.08
					c1.9-10.1,3.17-20.43,16.49-31.2c0,0,6.62,0.92,10.7,2.55c4.07,1.63,7.19,5,9.81,8.52c5.56,7.46,8.19,14.74,9.47,24.03
					c0.64,4.65,0.96,10.72,0.27,15.36C346.63,328.46,340.23,342.79,327.15,348.58z"/>
				<path class="st15" d="M337.48,264.35c4.2-2.39,8.76-4.5,13.44-5.63c0.33,0.08,0.67,0.16,0.99,0.25
					c4.48,1.25,8.14,2.91,11.27,4.82c-1.1,0.72-2.36,1.21-3.4,2.02c-1.44,1.12-2.14,3.64,0.45,3.5c3.3-0.17,6.61-0.39,9.92-0.26
					c2.33,2.13,4.38,4.37,6.39,6.58c-0.29,0.19-0.58,0.39-0.86,0.58c-0.94,0.63-2.85,1.92-2.18,3.26c0.65,1.31,2.99,1.06,4.14,0.9
					c0.71-0.1,1.89-0.12,3.3-0.05c3.09,3.11,6.49,5.93,11,8.02l3.31,1.25c-0.03,0.04-0.06,0.08-0.09,0.12
					c-2.92,3.49-8.11,4.4-11.83,6.72c-4.17,2.61-6.66,6.96-10.67,9.7c-0.31,0.21-0.66,0.41-1.02,0.33c-0.4-0.09-0.65-0.49-0.8-0.87
					c-1.15-2.86,0.35-6.11,2.28-8.52c0.98-1.22,6.51-4.83,3.2-6.55c-0.54-0.28-1.17-0.3-1.78-0.28c-3.47,0.11-6.82,1.4-9.81,3.16
					c-2.99,1.77-5.66,4.02-8.32,6.24c-0.69,0.57-1.57,1.18-2.4,0.85c-0.98-0.4-1.04-1.75-0.85-2.79c1.04-5.74,4.54-9.25,8.29-13.37
					c0.11-0.12,0.22-0.24,0.27-0.39c0.13-0.36-0.1-0.76-0.43-0.96c-1.35-0.8-4.26-0.04-5.68,0.28c-2.02,0.46-3.96,1.22-5.82,2.11
					c-3.99,1.9-7.74,4.37-11.95,5.7c-0.35,0.11-0.77,0.21-1.08,0c-0.23-0.16-0.33-0.45-0.39-0.73c-0.55-2.59,1.16-5.09,2.91-7.09
					c2.1-2.39,4.4-4.61,6.86-6.61c0.8-0.65,1.68-1.37,1.91-2.38c0.33-1.48-0.96-2.94-2.43-3.34c-2.09-0.57-5.29,0.23-7.34,0.82
					c-2.79,0.8-5.36,2.23-7.81,3.75c-0.63,0.39-1.56,0.75-2.02,0.17c-0.15-0.19-0.21-0.43-0.24-0.67
					C327.54,270.18,333.98,266.34,337.48,264.35z"/>
				<g>
					<path class="st15" d="M302.36,389.84c0.21-0.46,0.37-0.95,0.46-1.44c0.24-1.21,0.24-2.51,0-3.72c-0.53-2.66-2-5.16-4.15-6.84
						c-0.38-0.29-0.62,0.22-0.37,0.52c1.42,1.69,2.38,3.64,2.77,5.83c0.33,1.87,0.32,3.77-0.58,5.42
						C301.11,389.76,301.73,389.83,302.36,389.84z"/>
					<path class="st15" d="M307.4,387.86c0.01-0.04,0.03-0.09,0.03-0.13c0.27-1.35,0.21-2.74-0.11-4.08
						c-0.31-1.3-0.84-2.56-1.49-3.73c-0.54-0.99-1.25-2.19-2.31-2.69c-0.3-0.14-0.33,0.37-0.19,0.52c0.81,0.89,1.25,1.91,1.69,3.02
						c0.4,1,0.71,2.05,0.9,3.11c0.18,1.04,0.19,2.11,0.01,3.15c-0.16,0.9-0.53,1.64-0.93,2.42
						C305.94,389.12,306.77,388.6,307.4,387.86z"/>
				</g>
			</g>
			<path class="st19" d="M436.42,342.08c-0.74-0.96-1.67-3.55-2.76-4.25c0.76,3.75-0.87,9.57-2.84,12.84c-0.51,0.84-1.34,2-2.59,3.5
				c0.11-1.02-0.04-2.47-0.3-3.73c0.17,1.73-1.27,4.64-2,5.83c-2.81,4.6-8.22,10.35-15,14.47c2.64-3.55,2.97-8.49,0.8-11.94
				c-0.44,1.35-0.88,2.71-1.33,4.06c-2.76-1.94-3.75-5.02-4.98-7.91c-0.73-1.73-1.93-7.85,0.35-9.09c-1.54,0.84-2.7,2.29-3.15,3.94
				c-0.2,0.72-0.6,1.69-1.35,1.49c-0.27-0.07-0.46-0.3-0.63-0.51c-6.52-8.38-7.6-22.63,3.35-34.62c2.42-2.66,28.6-3.75,29.29-2.56
				c1.43,2.46,3.96,8.44,4.63,13.48C439.02,335.3,437.43,339.78,436.42,342.08z"/>
			<path class="st18" d="M430.66,299.1l-46-2.65c0.05,4.12-0.76,8.3-2.48,12.32c3.94,4.06,11.82,6.91,15.94,7.87
				c8.67,2.02,17.84,2.4,26.61,0.58c0.93-0.19,1.85-0.45,2.75-0.76c2.06-0.71,3.99-1.69,5.8-2.87
				C430.56,308.26,428.87,303.54,430.66,299.1z"/>
			<path class="st15" d="M366.24,417.68c-7.18-14.16-5.9-31.49-5.93-41.55c-0.03-10.06,2.12-20.86,2.12-20.86
				s-0.66,11.47-0.67,20.62C361.75,384.52,361.06,401.02,366.24,417.68z"/>
			<path class="st15" d="M399.95,380.72c-1.57,0.36-3.16,0.71-4.8,1.02c0,0,0,0,0,0c3.3-8.49,4.23-18.39,4.23-18.39
				S401.26,371.64,399.95,380.72z"/>
		</g>
		<g>
			<g>
				<path class="st15" d="M378.06,271.79c-4.48-7.51-3.66-25.3,2.69-29.03c5.99-3.52,20.31,14.06,20.31,14.06
					S389.84,269.71,378.06,271.79z"/>
				<path class="st20" d="M385.29,267.08c7.98-4.86,15.76-10.26,15.76-10.26s-13.66-16.72-18.58-13.78
					C379.36,244.45,376.38,254.48,385.29,267.08z"/>
				<path class="st1" d="M396.47,257.19c-1.44-0.66-2.28-1.47-3.35-2.94c-1.07-1.48-1.54-2.87-1.63-4.93
					c-2.95,2.11-4.1,7.09-4.1,7.09c-4.38-0.61-4.2-4.99-4.2-4.99c-2.17,2.44-1.71,8.89,2.19,11.95c0,0,2.37,0.1,5.76-1.54
					C394.52,260.2,396.26,258.39,396.47,257.19z"/>
			</g>
			<path class="st17" d="M387.45,264.07c-2.91-1.94-4.8-6.14-3.65-9.09c0,0,2.04,2.46,4.35,2.5c0,0,0.96-8.29,5.51-9.64
				c0,0-0.88,5.46,3.23,8.34C398.32,263.84,387.45,264.07,387.45,264.07z"/>
			<g>
				<path class="st15" d="M412.03,252.89c3.87-6.77,15.3-13.57,22.38-8.84c3.99,2.67-3.27,22.36-3.27,22.36
					S417.94,261.39,412.03,252.89z"/>
				<path class="st20" d="M417.74,258.22c6.55,4.29,13.41,8.19,13.41,8.19s7.26-19.69,3.27-22.36
					C431.7,242.84,423.71,245.77,417.74,258.22z"/>
				<path class="st1" d="M430.26,262.11c0.49-0.99,1.04-1.72,1.6-2.28c0.4-1.24,0.85-2.7,1.27-4.23c-2.65-1.45-6.33-1.37-6.33-1.37
					c-0.18-2.15,1.71-4.34,1.71-4.34c-2.61-0.69-6.85,1.93-7.67,6.33c0,0,0.97,2.57,2.94,4.43c1.44,0.73,2.75,1.34,3.83,1.82
					C428.41,262.54,429.29,262.45,430.26,262.11z"/>
			</g>
			<path class="st17" d="M421.97,257.7c0.8-3.05,3.63-5.9,6.24-5.78c0,0-1.43,2.46-0.88,4.45c0,0,6.76-1.61,8.96,1.87
				c0,0-4.51,0.85-5.76,5.21C424.86,266.92,421.97,257.7,421.97,257.7z"/>
			<path class="st17" d="M409.33,252.45c2.81-0.18,6.19,0.97,8.79,1.92c2.88,1.04,6.13,2.45,8.67,4.16
				c4.87,3.27,8.39,5.68,12.36,10.07c3.62,4.01,6.95,8.07,9.23,13.03c0.37,0.81,0.72,1.64,0.82,2.53c0.1,0.88-0.09,1.84-0.68,2.5
				c-0.59,0.67-1.64,0.96-2.42,0.53c0.6,0.68,1.04,1.52,1.1,2.42c0.07,0.9-0.29,1.85-1.01,2.39c-0.72,0.54-1.82,0.57-2.5-0.02
				c0.02,0.93-0.21,2.36-0.4,2.98c-0.33,1.12-0.73,2.16-1.37,3.15c-0.55,0.85-1.13,1.68-1.74,2.49c-1.26,1.67-2.64,3.24-4.15,4.68
				c-3,2.86-5.29,4.2-9.28,5.44c-0.82,0.26-4.29,1.34-5.13,1.49c-7.96,1.37-14.82,0.85-22.55-1.38c-3.67-1.05-7.24-2.45-10.65-4.18
				c-1.68-0.85-3.3-1.85-4.75-3.06c-0.52-0.43-1.77-1.05-3.17-3.73c-0.3,0.67-1.23,0.67-1.9,0.38c-0.88-0.39-1.51-1.6-1.78-2.28
				c-0.58-1.45-0.83-2.79-0.76-3.98c-1.02,0.79-2.62,0.26-3.38-0.79c-0.76-1.05-0.88-2.41-0.9-3.71c-0.06-5.24,1.35-10.2,4.08-14.65
				C382.91,263.29,395.43,253.34,409.33,252.45z"/>
			<path class="st19" d="M411.43,289.37c8.33-5.02,3.49-25.87,3.49-25.87c4.59,9.05,6.45,19.88,15.23,23.28
				c7.64,2.96,10.69,6.52,10.95,12.52c-1.57,4.34-6.99,10.59-19.11,13.09c-6.16,1.27-12.74,1.29-22.03-1.32
				C395.8,300.05,400.9,295.73,411.43,289.37z"/>
			<g>
				<path class="st21" d="M434.35,279.71c-0.17,1.94-1.88,3.37-3.84,3.2c-1.95-0.17-3.4-1.87-3.24-3.81
					c0.17-1.94,1.88-3.37,3.84-3.2C433.07,276.06,434.52,277.77,434.35,279.71z"/>
				<path class="st22" d="M434.71,279.5c-0.17,1.94-1.88,3.37-3.84,3.2c-1.95-0.17-3.4-1.87-3.24-3.81c0.17-1.94,1.88-3.37,3.84-3.2
					C433.42,275.86,434.87,277.57,434.71,279.5z"/>
				<path class="st21" d="M431.34,279.29c0.03,0.7-0.52,1.28-1.22,1.31c-0.7,0.03-1.28-0.52-1.31-1.22
					c-0.03-0.7,0.52-1.28,1.22-1.31C430.72,278.05,431.31,278.59,431.34,279.29z"/>
				<path class="st21" d="M432.73,277.58c0.01,0.24-0.18,0.44-0.42,0.45c-0.24,0.01-0.44-0.18-0.45-0.42
					c-0.01-0.24,0.18-0.44,0.42-0.45C432.52,277.15,432.72,277.33,432.73,277.58z"/>
			</g>
			<g>
				<g>
					<path class="st22" d="M398.34,294.98c0.02-0.01,0.03-0.02,0.05-0.03c0.26-0.18,0.33-0.55,0.15-0.83
						c-1.83-2.93-5.21-6.25-10.88-5.45c-0.31,0.04-0.52,0.34-0.47,0.67c0.05,0.33,0.33,0.56,0.64,0.51
						c5.09-0.71,8.13,2.28,9.78,4.91C397.77,295.03,398.08,295.12,398.34,294.98z"/>
				</g>
				<g>
					<path class="st22" d="M396.77,296.43c0.05-0.03,0.11-0.07,0.15-0.12c0.21-0.24,0.19-0.62-0.04-0.84
						c-1.93-1.9-5.7-2.69-7.87-2.22c-0.3,0.07-0.49,0.38-0.42,0.7c0.07,0.32,0.37,0.53,0.67,0.46c1.9-0.41,5.23,0.32,6.86,1.92
						C396.31,296.51,396.57,296.54,396.77,296.43z"/>
				</g>
				<g>
					<path class="st22" d="M397.05,298.88c0.1-0.06,0.18-0.15,0.23-0.27c0.12-0.3-0.02-0.65-0.31-0.79
						c-2.5-1.17-6.84-1.32-10.54,1.08c-0.26,0.17-0.34,0.54-0.17,0.82c0.17,0.28,0.51,0.37,0.77,0.21c0,0,0.01,0,0.01-0.01
						c3.35-2.18,7.26-2.05,9.5-1.01C396.71,298.99,396.9,298.97,397.05,298.88z"/>
				</g>
			</g>
			<g>
				<g>
					<path class="st22" d="M440.38,287.89c-0.02,0-0.04-0.01-0.05-0.02c-0.29-0.11-0.45-0.45-0.34-0.77
						c1.08-3.28,3.58-7.3,9.28-7.88c0.31-0.03,0.59,0.21,0.62,0.54c0.03,0.33-0.19,0.62-0.5,0.65c-5.12,0.52-7.36,4.14-8.33,7.09
						C440.94,287.8,440.65,287.96,440.38,287.89z"/>
				</g>
				<g>
					<path class="st22" d="M442.24,288.93c-0.06-0.02-0.12-0.04-0.17-0.08c-0.26-0.18-0.33-0.55-0.16-0.83
						c1.43-2.3,4.89-3.97,7.12-4.02c0.31-0.01,0.57,0.25,0.58,0.58c0.01,0.33-0.23,0.6-0.54,0.61c-1.94,0.05-5.01,1.55-6.21,3.49
						C442.71,288.89,442.47,288.99,442.24,288.93z"/>
				</g>
				<g>
					<path class="st22" d="M442.56,291.37c-0.11-0.04-0.21-0.11-0.28-0.21c-0.19-0.26-0.14-0.64,0.11-0.84
						c2.15-1.73,6.33-2.91,10.49-1.46c0.3,0.1,0.45,0.44,0.36,0.76c-0.1,0.31-0.41,0.48-0.7,0.38c0,0-0.01,0-0.01,0
						c-3.77-1.33-7.54-0.27-9.46,1.28C442.91,291.4,442.72,291.43,442.56,291.37z"/>
				</g>
			</g>
			<g>
				<path class="st22" d="M429.33,298.85c-0.13-0.36-0.53-0.54-0.88-0.41c-1.55,0.56-2.92,0.45-4.08-0.35
					c-1.45-1-2.22-2.82-2.4-4.07c-0.01-0.19-0.03-0.37-0.05-0.56c-0.04-0.36-0.36-0.63-0.72-0.61c-0.36,0.02-0.65,0.33-0.64,0.69
					c0,0.2,0.02,0.42,0.05,0.64c0.12,2.67-1.04,4.76-3.23,5.79c-2.2,1.03-4.89,0.74-6.26-0.68c-0.26-0.27-0.7-0.28-0.97-0.02
					c-0.27,0.26-0.28,0.7-0.02,0.97c0.99,1.02,2.48,1.6,4.08,1.68c1.25,0.07,2.56-0.17,3.74-0.72c1.84-0.86,3.09-2.31,3.66-4.15
					c0.49,0.83,1.15,1.6,1.97,2.16c1.06,0.73,2.85,1.41,5.32,0.51C429.27,299.6,429.46,299.2,429.33,298.85z"/>
				<path class="st23" d="M421.35,295.71c1.19-0.09,4.06-2.88,4.17-4.82c0.11-1.94-9.48-0.65-9.5,0.88
					C416.01,293.93,420.16,295.8,421.35,295.71z"/>
			</g>
			<g>
				<path class="st21" d="M407.9,282.46c-0.2,2.39-2.33,4.16-4.74,3.95c-2.41-0.21-4.2-2.31-4-4.7c0.21-2.39,2.33-4.16,4.74-3.95
					C406.32,277.97,408.11,280.07,407.9,282.46z"/>
				<path class="st22" d="M408.34,282.21c-0.21,2.39-2.33,4.16-4.74,3.95c-2.41-0.21-4.2-2.31-4-4.7c0.21-2.39,2.33-4.16,4.74-3.95
					C406.76,277.71,408.55,279.82,408.34,282.21z"/>
				<path class="st21" d="M404.18,281.95c0.03,0.86-0.64,1.59-1.5,1.62c-0.86,0.03-1.59-0.64-1.62-1.5
					c-0.03-0.86,0.64-1.59,1.5-1.62C403.42,280.42,404.15,281.09,404.18,281.95z"/>
				<path class="st21" d="M405.9,279.83c0.01,0.3-0.22,0.55-0.52,0.56c-0.3,0.01-0.55-0.22-0.56-0.52c-0.01-0.3,0.22-0.55,0.52-0.56
					C405.64,279.3,405.88,279.53,405.9,279.83z"/>
			</g>
		</g>
	</g>
</g>
<g id="Speech_Bubble">
	<g id="Speech_Bubble_00000018923358084045024090000003369390092894359700_">
		<g id="Speech_Bubble_00000039813836308896942000000012126244285861752475_">
			<path class="st21" d="M400.67,90.06c0.02,10.17-3.93,19.43-10.37,26.36l-3.19,3.04c-6.72,5.74-15.42,9.23-24.92,9.25
				c-21.27,0.04-38.61-17.21-38.66-38.48c-0.02-9.5,3.43-18.23,9.13-24.97l3.04-3.2c6.89-6.48,16.14-10.47,26.31-10.49
				C383.28,51.54,400.62,68.79,400.67,90.06z"/>
			<path class="st24" d="M362,48.31c-23.07,0.05-41.81,18.87-41.74,41.94c0.04,20.7,15.2,37.89,34.97,41.16l4.72,12.11
				c0.81,2.07,3.74,2.06,4.53-0.01l4.67-12.13c19.76-3.37,34.83-20.63,34.78-41.32C403.88,66.99,385.07,48.26,362,48.31z
				 M400.67,90.06c0.02,10.17-3.93,19.43-10.37,26.36l-3.19,3.04c-6.72,5.74-15.42,9.23-24.92,9.25
				c-21.27,0.04-38.61-17.21-38.66-38.48c-0.02-9.5,3.43-18.23,9.13-24.97l3.04-3.2c6.89-6.48,16.14-10.47,26.31-10.49
				C383.28,51.54,400.62,68.79,400.67,90.06z"/>
		</g>
		<path id="Heart_15_" class="st25" d="M362.73,114.86l-7.7-4.61c-0.32-0.23-0.72-0.49-1.18-0.79c-5.24-3.44-17.5-11.48-17.5-25.14
			c0-7.08,5.86-12.82,13.09-12.82c6.36,0,11.65,4.43,12.84,10.31c1.19-5.88,6.49-10.31,12.84-10.31c7.23,0,13.09,5.74,13.09,12.82
			c0,13.77-11.84,21.86-16.9,25.31c-0.34,0.23-0.64,0.44-0.9,0.62L362.73,114.86z"/>
	</g>
</g>
</svg>
